<?xml version="1.0" encoding="utf-8"?>
<!-- Generator: Adobe Illustrator 16.0.0, SVG Export Plug-In . SVG Version: 6.00 Build 0)  -->
<!DOCTYPE svg PUBLIC "-//W3C//DTD SVG 1.1//EN" "http://www.w3.org/Graphics/SVG/1.1/DTD/svg11.dtd">
<svg version="1.1" id="Layer_1" xmlns="http://www.w3.org/2000/svg" xmlns:xlink="http://www.w3.org/1999/xlink" x="0px" y="0px"
	 width="419px" height="187px" viewBox="0 0 419 187" enable-background="new 0 0 419 187" xml:space="preserve">
<g>
	<g>
		<path fill="#9933FF" d="M251.276,120.508c1.45,3.38,3.53,6.404,6.182,8.988c2.636,2.568,5.711,4.756,9.142,6.158
			c3.526,1.439,7.277,2.346,11.148,2.346h69.665c1.37,0,2.67-0.701,3.66-1.658c1.012-0.977,1.592-2.421,1.592-3.81
			s-0.58-2.909-1.592-3.886c-0.99-0.956-2.29-1.646-3.66-1.646h-34.084c-10.19,0-18.173-7.719-18.173-17.727
			c0-10.039,7.98-18.115,18.168-18.117L348.084,91c0.002,0,0.004,0,0.005,0c2.896,0,5.703-0.289,8.343-1.383
			c2.563-1.063,4.859-2.455,6.828-4.398c1.976-1.949,3.526-4.16,4.608-6.705c1.12-2.634,1.688-5.408,1.688-8.31
			c0-2.906-0.577-5.704-1.717-8.347c-1.097-2.543-2.665-4.815-4.662-6.768c-1.985-1.941-4.297-3.419-6.87-4.482
			c-2.653-1.096-5.466-1.607-8.361-1.607h-70.11c-2.886,0-5.233,2.141-5.233,5c0,2.86,2.348,5,5.233,5h69.438
			c6.125,0,11.107,5.055,11.107,11.091c0,6.087-4.829,10.928-10.995,10.928l-69.637,0.05c-3.871,0-7.622,0.748-11.148,2.188
			c-3.431,1.401-6.506,3.424-9.142,5.992c-2.651,2.584-4.731,5.613-6.182,8.993c-1.504,3.505-2.268,7.251-2.268,11.132
			S249.772,117.003,251.276,120.508z"/>
		
			<linearGradient id="SVGID_1_" gradientUnits="userSpaceOnUse" x1="-5201.6885" y1="21.7358" x2="-5163.6133" y2="87.684" gradientTransform="matrix(-1 0 0 -1 -4860.3135 160)">
			<stop  offset="0.5753" style="stop-color:#9933FF"/>
			<stop  offset="1" style="stop-color:#6D24B5"/>
		</linearGradient>
		<path fill="url(#SVGID_1_)" d="M264.507,108.71c0,3.342,0.656,6.566,1.952,9.584c1.249,2.911,3.04,5.515,5.323,7.74
			c2.27,2.211,4.917,3.917,7.871,5.124c3.037,1.24,6.267,1.842,9.601,1.842h59.989c1.179,0,2.299-0.426,3.151-1.25
			c0.067-0.064,0.133-0.114,0.196-0.185c-0.187-1.076-0.717-2.199-1.518-2.972c-0.99-0.956-2.29-1.594-3.66-1.594h-34.084
			c-10.19,0-18.173-7.719-18.173-17.727c0-10.039,7.98-18.115,18.168-18.117L348.084,91c0.002,0,0.004,0,0.005,0
			c2.896,0,5.703-0.289,8.343-1.383c2.563-1.063,4.859-2.455,6.828-4.398c1.976-1.949,3.526-4.16,4.608-6.705
			c0.061-0.142,0.119-0.25,0.176-0.394c0.177-1.031,0.267-2.065,0.267-3.13c0-2.257-9.624-1.006-9.624,0.004
			c0,0.195-0.006,0.393-0.018,0.584c-0.293,4.962-4.339,8.771-9.451,8.771l-59.964,0.014c-3.334,0-6.563,0.631-9.601,1.871
			c-2.954,1.207-5.602,2.94-7.871,5.152c-2.283,2.225-4.074,4.829-5.323,7.739C265.163,102.143,264.507,105.368,264.507,108.71z"/>
	</g>
	<g>
		<path fill="#8CC63F" d="M280.411,49.54c-2.479-1.431-5.669-0.563-7.111,1.936c-0.001,0.002-0.002,0.003-0.003,0.005
			l-42.868,74.088l-2.783-4.822c-0.001-0.002-0.002-0.003-0.003-0.004l-33.025-57.057c-2.412-4.43-6.001-8.076-10.38-10.681
			C179.755,50.338,174.582,49,169.276,49h-35.73c-1.368,0-2.667,0.454-3.657,1.407c-1.014,0.976-1.595,2.297-1.595,3.687
			c0,0.894,0.239,1.762,0.69,2.546c0.001,0.002,0.002-0.006,0.003-0.004l5.23,9.049l33.026,57.056
			c2.412,4.43,6.001,7.862,10.38,10.467c4.482,2.667,9.655,3.793,14.961,3.793h39.827c1.854,0,3.593-0.709,4.536-2.307
			c0.005-0.008,0.01,0.125,0.015,0.117l45.313-78.189c0.005-0.008,0.009,0.02,0.014,0.012
			C283.732,54.134,282.89,50.971,280.411,49.54z"/>
		<linearGradient id="SVGID_2_" gradientUnits="userSpaceOnUse" x1="157.5322" y1="121.792" x2="189.7474" y2="65.9936">
			<stop  offset="0.4946" style="stop-color:#8CC63F"/>
			<stop  offset="1" style="stop-color:#5EA600"/>
		</linearGradient>
		<path fill="url(#SVGID_2_)" d="M217.133,133c1.661,0,3.218-0.914,4.063-2.346c0.005-0.008,0.009-0.028,0.014-0.036l-5.854-8.412
			l-2.494-4.324c0-0.001-0.001-0.004-0.002-0.006L183.273,66.76c-2.161-3.969-5.376-7.536-9.3-9.87
			C169.958,54.5,165.324,53,160.57,53h-32.01c-0.078,0-0.155,0.239-0.232,0.243c-0.022,0.191-0.034,0.503-0.034,0.697
			c0,0.894,0.239,1.839,0.69,2.624c0.001,0.002,0.002,0.033,0.003,0.034l5.23,9.068l33.026,57.065
			c2.082,3.822,5.04,7.144,8.626,9.648c1.821,0.391,3.693,0.621,5.583,0.621H217.133z"/>
	</g>
	<g>
		<path fill="#F7931E" d="M167.724,66.06c-1.451-3.38-3.531-6.404-6.182-8.988c-2.635-2.568-5.711-4.541-9.142-5.942
			c-3.526-1.44-7.277-2.13-11.148-2.13H71.587c-1.37,0-2.669,0.486-3.66,1.443c-1.012,0.976-1.592,2.312-1.592,3.701
			c0,1.39,0.58,2.572,1.592,3.548C68.917,58.648,70.217,59,71.587,59h34.084c10.19,0,18.173,8.002,18.173,18.01
			c0,10.041-7.98,17.972-18.168,17.974L70.916,95c-0.001,0-0.003,0-0.005,0c-2.896,0-5.703,0.572-8.343,1.666
			c-2.562,1.063-4.859,2.598-6.828,4.541c-1.976,1.95-3.526,4.232-4.608,6.776c-1.12,2.635-1.688,5.443-1.688,8.346
			c0,2.906,0.578,5.721,1.717,8.364c1.096,2.543,2.665,4.823,4.662,6.776c1.985,1.941,4.297,3.64,6.871,4.703
			c2.653,1.096,5.466,1.827,8.361,1.827h70.111c2.885,0,5.233-2.641,5.233-5.5s-2.348-5.5-5.233-5.5H71.728
			c-6.125,0-11.108-4.771-11.108-10.807c0-6.088,4.83-10.786,10.996-10.786l69.636,0.021c3.872,0,7.623-0.714,11.148-2.154
			c3.431-1.402,6.506-3.406,9.142-5.974c2.651-2.584,4.731-5.604,6.182-8.983c1.504-3.505,2.267-7.248,2.267-11.128
			C169.991,73.308,169.228,69.565,167.724,66.06z"/>
		<linearGradient id="SVGID_3_" gradientUnits="userSpaceOnUse" x1="74.2754" y1="135.7461" x2="125.5413" y2="46.951">
			<stop  offset="0.6613" style="stop-color:#F7931E"/>
			<stop  offset="1" style="stop-color:#CC6D00"/>
		</linearGradient>
		<path fill="url(#SVGID_3_)" d="M154.494,77.858c0-3.342-0.657-6.567-1.952-9.585c-1.249-2.91-3.04-5.514-5.323-7.739
			c-2.27-2.211-4.917-4.201-7.872-5.408c-3.037-1.24-6.266-2.126-9.6-2.126H69.757c-1.179,0-2.299,0.71-3.152,1.534
			c-0.068,0.065-0.133,0.257-0.196,0.327c0.187,1.076,0.716,1.986,1.517,2.759C68.917,58.575,70.217,59,71.587,59h34.084
			c10.19,0,18.173,8.002,18.173,18.01c0,10.041-7.98,17.972-18.168,17.974L70.916,95c-0.001,0-0.003,0-0.005,0
			c-2.896,0-5.703,0.572-8.343,1.666c-2.562,1.063-4.859,2.598-6.828,4.541c-1.976,1.95-3.526,4.232-4.608,6.776
			c-0.061,0.143-0.119,0.286-0.176,0.429c-0.177,1.031-0.266,2.083-0.266,3.148c0,2.503,0.498,4.927,1.479,7.203
			c0.944,2.19,2.295,4.153,4.015,5.835c1.709,1.672,3.7,3.024,5.916,3.938c2.284,0.945,4.707,1.463,7.199,1.463h60.373
			c1.833,0,3.412-1,4.116-3h-62.06c-6.125,0-11.108-4.771-11.108-10.807c0-0.641,0.054-1.194,0.156-1.801
			c-0.3-0.913-0.462-1.852-0.462-2.861c0-5.241,4.159-9.332,9.468-9.332l59.964-0.004c3.334,0,6.563-0.624,9.6-1.864
			c2.954-1.207,5.602-2.938,7.872-5.15c2.283-2.225,4.074-4.829,5.323-7.739C153.837,84.424,154.494,81.2,154.494,77.858z"/>
	</g>
</g>
</svg>
