<?xml version="1.0" encoding="utf-8"?>
<!-- Generator: Adobe Illustrator 16.0.0, SVG Export Plug-In . SVG Version: 6.00 Build 0)  -->
<!DOCTYPE svg PUBLIC "-//W3C//DTD SVG 1.1//EN" "http://www.w3.org/Graphics/SVG/1.1/DTD/svg11.dtd">
<svg version="1.1" id="Layer_1" xmlns="http://www.w3.org/2000/svg" xmlns:xlink="http://www.w3.org/1999/xlink" x="0px" y="0px"
	 width="17.066px" height="16.46px" viewBox="0 0 17.066 16.46" enable-background="new 0 0 17.066 16.46" xml:space="preserve">
<path fill="#BE1E2D" d="M11.423,6.482c0.113-0.146,0.088-0.356-0.058-0.471c-0.125-0.098-0.302-0.095-0.423,0.009l-6.008,5.11
	L1.764,9.904C1.365,9.751,1.167,9.305,1.318,8.907C1.384,8.735,1.51,8.591,1.673,8.503l13.168-7.376
	c0.316-0.17,0.709-0.053,0.881,0.264c0.06,0.112,0.086,0.24,0.074,0.369L14.64,13.8c-0.041,0.439-0.43,0.761-0.867,0.72
	c-0.076-0.007-0.152-0.025-0.223-0.054l-3.86-1.495l-2.424,2.271c-0.253,0.236-0.649,0.222-0.885-0.03
	c-0.11-0.117-0.17-0.271-0.168-0.433v-1.783L11.423,6.482z"/>
</svg>
