<?xml version="1.0" encoding="utf-8"?>
<!-- Generator: Adobe Illustrator 16.0.0, SVG Export Plug-In . SVG Version: 6.00 Build 0)  -->
<!DOCTYPE svg PUBLIC "-//W3C//DTD SVG 1.1//EN" "http://www.w3.org/Graphics/SVG/1.1/DTD/svg11.dtd">
<svg version="1.1" id="Layer_1" xmlns="http://www.w3.org/2000/svg" xmlns:xlink="http://www.w3.org/1999/xlink" x="0px" y="0px"
	 width="17.066px" height="16.46px" viewBox="0 0 17.066 16.46" enable-background="new 0 0 17.066 16.46" xml:space="preserve">
<path fill="#BE1E2D" d="M14.949,13.22l-1.425,1.426c-0.395,0.395-1.033,0.395-1.426,0l-3.564-3.564l-3.565,3.564
	c-0.393,0.395-1.032,0.395-1.426,0L2.117,13.22c-0.394-0.393-0.394-1.031,0-1.426L5.681,8.23L2.117,4.666
	c-0.394-0.393-0.394-1.03,0-1.425l1.426-1.427c0.394-0.393,1.032-0.393,1.426,0l3.565,3.564l3.564-3.564
	c0.393-0.393,1.031-0.393,1.426,0l1.425,1.427c0.394,0.395,0.394,1.032,0,1.425L11.385,8.23l3.563,3.564
	C15.342,12.188,15.342,12.825,14.949,13.22z"/>
</svg>
