<?xml version="1.0" encoding="utf-8"?>
<!-- Generator: Adobe Illustrator 16.0.0, SVG Export Plug-In . SVG Version: 6.00 Build 0)  -->
<!DOCTYPE svg PUBLIC "-//W3C//DTD SVG 1.1//EN" "http://www.w3.org/Graphics/SVG/1.1/DTD/svg11.dtd">
<svg version="1.1" id="Layer_1" xmlns="http://www.w3.org/2000/svg" xmlns:xlink="http://www.w3.org/1999/xlink" x="0px" y="0px"
	 width="17.066px" height="16.46px" viewBox="0 0 17.066 16.46" enable-background="new 0 0 17.066 16.46" xml:space="preserve">
<path fill="#8DC63F" d="M8.536,0.064c-4.512,0-8.168,3.655-8.168,8.165c0,4.511,3.656,8.166,8.168,8.166
	c4.509,0,8.163-3.655,8.163-8.166C16.699,3.72,13.044,0.064,8.536,0.064z M13.297,7.231l-5.032,5.031
	c-0.362,0.361-0.865,0.498-1.333,0.406c-0.284-0.053-0.555-0.188-0.773-0.406L3.434,9.536c-0.58-0.58-0.577-1.518,0.001-2.097
	c0.579-0.579,1.515-0.579,2.095,0l1.683,1.684L11.2,5.136c0.579-0.58,1.518-0.578,2.098,0.001
	C13.875,5.717,13.875,6.651,13.297,7.231z"/>
</svg>
