<?xml version="1.0" encoding="utf-8"?>
<!-- Generator: Adobe Illustrator 16.0.0, SVG Export Plug-In . SVG Version: 6.00 Build 0)  -->
<!DOCTYPE svg PUBLIC "-//W3C//DTD SVG 1.1//EN" "http://www.w3.org/Graphics/SVG/1.1/DTD/svg11.dtd">
<svg version="1.1" id="Layer_1" xmlns="http://www.w3.org/2000/svg" xmlns:xlink="http://www.w3.org/1999/xlink" x="0px" y="0px"
	 width="17.066px" height="16.46px" viewBox="0 0 17.066 16.46" enable-background="new 0 0 17.066 16.46" xml:space="preserve">
<g>
	<g>
		<path fill="#F7941E" d="M0.026,8.056C0.263,5.98,1.508,4.438,3.643,4.142c1.779-0.236,3.35,0.682,4.21,2.255
			c0.059,0,0.208,0.029,0.295,0c1.009,0,6.878,0,6.937,0c0.149,0.029,1.81,0.977,1.957,1.125c0.031,0.03,0.031,1.394,0,1.423
			l-1.422,1.424L14.642,9.39l-0.979,0.979l-0.947-0.949l-0.98,0.979l-0.977-0.979l-0.83,0.83c-0.031,0.029-2.106,0.029-2.195,0
			c-0.949,1.542-2.459,2.342-4.298,2.046C1.539,11.999-0.239,10.042,0.026,8.056z M9.424,7.967l5.396-0.118
			c0.326-0.03,0.326-0.505-0.029-0.505L9.396,7.463C9.099,7.463,9.128,7.967,9.424,7.967z M1.45,9.182
			c0.473,0.475,1.303,0.475,1.808-0.029c0.475-0.474,0.475-1.304,0-1.779C2.753,6.869,1.923,6.869,1.45,7.344
			C0.946,7.849,0.946,8.679,1.45,9.182z"/>
	</g>
</g>
</svg>
