<?xml version="1.0" encoding="utf-8"?>
<!-- Generator: Adobe Illustrator 16.0.0, SVG Export Plug-In . SVG Version: 6.00 Build 0)  -->
<!DOCTYPE svg PUBLIC "-//W3C//DTD SVG 1.1//EN" "http://www.w3.org/Graphics/SVG/1.1/DTD/svg11.dtd">
<svg version="1.1" id="Layer_1" xmlns="http://www.w3.org/2000/svg" xmlns:xlink="http://www.w3.org/1999/xlink" x="0px" y="0px"
	 width="17.066px" height="16.46px" viewBox="0 0 17.066 16.46" enable-background="new 0 0 17.066 16.46" xml:space="preserve">
<g>
	<path fill="#939598" d="M1.111,8.758v4.669c0,0.354,0.286,0.641,0.64,0.641h13.564c0.354,0,0.641-0.287,0.641-0.641V8.758H1.111z"
		/>
	<path fill="#939598" d="M15.956,7.929V6.239c0-0.354-0.287-0.641-0.641-0.641H12.67v-1.9c0-0.72-0.585-1.305-1.304-1.305H5.699
		c-0.719,0-1.304,0.585-1.304,1.305v1.9H1.75c-0.354,0-0.64,0.287-0.64,0.641v1.689H15.956z M5.721,3.721h5.623v1.878H5.721V3.721z"
		/>
</g>
</svg>
