<?xml version="1.0" encoding="utf-8"?>
<!-- Generator: Adobe Illustrator 16.0.0, SVG Export Plug-In . SVG Version: 6.00 Build 0)  -->
<!DOCTYPE svg PUBLIC "-//W3C//DTD SVG 1.1//EN" "http://www.w3.org/Graphics/SVG/1.1/DTD/svg11.dtd">
<svg version="1.1" id="Layer_1" xmlns="http://www.w3.org/2000/svg" xmlns:xlink="http://www.w3.org/1999/xlink" x="0px" y="0px"
	 width="17.066px" height="16.46px" viewBox="0 0 17.066 16.46" enable-background="new 0 0 17.066 16.46" xml:space="preserve">
<path fill="#F7941E" d="M8.534,0c-4.545,0-8.23,3.685-8.23,8.23c0,4.545,3.685,8.229,8.23,8.229c4.545,0,8.229-3.685,8.229-8.229
	C16.762,3.685,13.079,0,8.534,0z M12.445,8.955l-5.033,3.369c-0.263,0.174-0.618,0.192-0.896,0.045
	c-0.284-0.152-0.461-0.447-0.461-0.77V4.861c0-0.322,0.177-0.617,0.462-0.77c0.125-0.066,0.267-0.103,0.409-0.103
	c0.173,0,0.341,0.052,0.485,0.147l5.034,3.369c0.243,0.162,0.388,0.433,0.388,0.725S12.688,8.793,12.445,8.955z"/>
</svg>
