<?xml version="1.0" encoding="utf-8"?>
<!-- Generator: Adobe Illustrator 16.0.0, SVG Export Plug-In . SVG Version: 6.00 Build 0)  -->
<!DOCTYPE svg PUBLIC "-//W3C//DTD SVG 1.1//EN" "http://www.w3.org/Graphics/SVG/1.1/DTD/svg11.dtd">
<svg version="1.1" id="Layer_1" xmlns="http://www.w3.org/2000/svg" xmlns:xlink="http://www.w3.org/1999/xlink" x="0px" y="0px"
	 width="17.066px" height="16.46px" viewBox="0 0 17.066 16.46" enable-background="new 0 0 17.066 16.46" xml:space="preserve">
<g>
	<path fill="#1C75BC" d="M16.043,12.668c-0.549-0.329-1.068-0.43-1.414-0.442c-0.037-0.003-0.073-0.006-0.11-0.006h-1.013v-1.04
		l-2.188,0.698v0.342h-0.792v-0.342L8.338,11.18v1.04H7.465c-0.402-0.072-1.596-0.314-2.64-0.721
		c-0.117-0.045-0.231-0.092-0.342-0.141l-1.955,2.357c0.011,0.006,0.021,0.013,0.032,0.019c1.023,0.553,2.136,0.892,3.021,1.12
		c0.105,0.027,0.069,0.014,0.304,0.075c3.969,1.051,8.979,0.509,10.94-1.641C16.571,13.032,16.307,12.824,16.043,12.668z"/>
	<path fill="#1C75BC" d="M3.803,11.012c-0.113-0.067-0.212-0.135-0.294-0.198c-0.018-0.014-0.036-0.027-0.052-0.04
		c-0.139-0.112-0.212-0.207-0.233-0.244c0.001-0.002,0.002-0.005,0.003-0.007v-0.001v-0.001l0,0c0.003-0.007,0.004-0.013,0.006-0.02
		c0.047-0.132,0.338-0.573,1.115-1.136c0.809-0.598,2.104-1.33,3.975-2.151C9.077,6.882,9.418,6.004,9.088,5.25
		c-0.331-0.753-1.21-1.096-1.963-0.765C5.124,5.366,3.66,6.173,2.582,6.964C1.573,7.717,0.864,8.457,0.483,9.375
		c-0.024,0.05-0.047,0.102-0.065,0.155c0,0.001-0.001,0.002-0.001,0.003C0.415,9.54,0.413,9.545,0.411,9.551
		C0.3,9.871,0.239,10.208,0.24,10.544c-0.001,0.186,0.02,0.367,0.054,0.543c0.077,0.39,0.229,0.75,0.421,1.048
		c0.331,0.509,0.74,0.881,1.176,1.185L3.803,11.012z"/>
	<path fill="#1C75BC" d="M6.903,2.302c0,0.115,0,0.241,0,0.373c0,0.464,0,1.01,0,1.502c0.024-0.011,0.048-0.021,0.072-0.032
		c0.238-0.104,0.49-0.158,0.748-0.158c0.602,0,1.152,0.293,1.499,0.766c0.647-0.194,1.286-0.346,1.7-0.346
		c1.148,0,4.02,1.164,4.02,1.164s0-1.716,0-2.896c0-0.132,0-0.258,0-0.373c0-1.148-4.02-1.291-4.02-1.291S6.903,1.154,6.903,2.302z"
		/>
	<path fill="#1C75BC" d="M8.473,7.554C7.924,7.795,7.412,8.035,6.94,8.271c0.547,1.677,2.123,2.888,3.982,2.888
		c2.314,0,4.189-1.875,4.189-4.19c0-0.284-0.028-0.562-0.082-0.83c-0.676-0.194-3.122-0.881-4.107-0.881
		c-0.334,0-0.836,0.079-1.381,0.191C9.729,6.298,9.299,7.192,8.473,7.554z"/>
</g>
</svg>
