<?xml version="1.0" encoding="utf-8"?>
<!-- Generator: Adobe Illustrator 16.0.0, SVG Export Plug-In . SVG Version: 6.00 Build 0)  -->
<!DOCTYPE svg PUBLIC "-//W3C//DTD SVG 1.1//EN" "http://www.w3.org/Graphics/SVG/1.1/DTD/svg11.dtd">
<svg version="1.1" id="Layer_1" xmlns="http://www.w3.org/2000/svg" xmlns:xlink="http://www.w3.org/1999/xlink" x="0px" y="0px"
	 width="66.75px" height="20.417px" viewBox="0 0 66.75 20.417" enable-background="new 0 0 66.75 20.417" xml:space="preserve">
<path fill-rule="evenodd" clip-rule="evenodd" fill="#FFFFFF" d="M34.798,8.787h-0.142c-0.292-0.266-0.654-0.469-1.088-0.602
	c-0.434-0.133-0.955-0.195-1.548-0.195c-1.044,0-1.849,0.195-2.433,0.584c-0.593,0.389-0.885,0.929-0.885,1.619
	c0,0.681,0.31,1.229,0.92,1.637c0.61,0.406,1.425,0.609,2.45,0.609c0.531,0,1.026-0.061,1.495-0.186
	c0.46-0.115,0.902-0.309,1.318-0.557l0.15,0.035c-0.036,0.098-0.071,0.195-0.089,0.292c-0.018,0.106-0.035,0.204-0.044,0.31
	c-0.514,0.159-1.018,0.274-1.521,0.354c-0.513,0.08-1.035,0.115-1.583,0.115c-1.434,0-2.557-0.23-3.371-0.689
	c-0.813-0.46-1.221-1.097-1.221-1.885c0-0.796,0.425-1.415,1.283-1.875c0.857-0.451,2.034-0.681,3.529-0.681
	c0.513,0,1.035,0.026,1.548,0.097c0.504,0.062,1.035,0.159,1.583,0.292c-0.088,0.097-0.159,0.212-0.221,0.327
	C34.878,8.504,34.833,8.646,34.798,8.787z M24.025,7.778c-0.08,0-0.168,0.009-0.248,0.009s-0.159-0.009-0.239-0.018
	c-0.079,0-0.168-0.009-0.256-0.018c-0.407,0.69-0.92,1.459-1.548,2.3c-0.619,0.84-1.318,1.726-2.105,2.653
	c0.159-0.018,0.283-0.026,0.362-0.026c0.08,0,0.15-0.009,0.23-0.009c0.124,0,0.318,0.009,0.565,0.027l0.036,0.008
	c0.142-0.309,0.327-0.646,0.539-1.017c0.222-0.362,0.495-0.787,0.832-1.273l1.273-1.849l1.397,2.087l0.15,0.221
	c0.531,0.796,0.911,1.397,1.133,1.831c0.123-0.018,0.256-0.018,0.389-0.026c0.133,0,0.283-0.009,0.434-0.009
	c0.159,0,0.301,0.009,0.442,0.009c0.133,0.009,0.266,0.009,0.397,0.026c-0.92-1.167-1.689-2.185-2.3-3.034
	c-0.61-0.858-1.017-1.504-1.221-1.919C24.202,7.761,24.104,7.77,24.025,7.778z M59.407,7.778c-0.079,0-0.159,0.009-0.238,0.009
	C59.08,7.787,59,7.778,58.92,7.77c-0.08,0-0.168-0.009-0.257-0.018c-0.406,0.69-0.92,1.459-1.539,2.3s-1.326,1.726-2.105,2.653
	c0.151-0.018,0.274-0.026,0.354-0.026c0.079,0,0.159-0.009,0.229-0.009c0.133,0,0.318,0.009,0.566,0.027l0.035,0.008
	c0.142-0.309,0.328-0.646,0.549-1.017c0.221-0.362,0.495-0.787,0.822-1.273l1.274-1.849l1.397,2.087l0.159,0.221
	c0.53,0.796,0.902,1.397,1.132,1.831c0.124-0.018,0.248-0.018,0.39-0.026c0.133,0,0.274-0.009,0.434-0.009
	c0.15,0,0.301,0.009,0.433,0.009c0.142,0.009,0.274,0.009,0.407,0.026c-0.929-1.167-1.698-2.185-2.309-3.034
	c-0.602-0.858-1.018-1.504-1.212-1.919C59.583,7.761,59.496,7.77,59.407,7.778z M38.027,8.725c0.009,0.194,0.009,0.469,0.009,0.813
	c0,0.77-0.009,1.407-0.035,1.919c-0.026,0.505-0.062,0.921-0.124,1.247c0.115-0.018,0.23-0.026,0.354-0.026
	c0.114-0.009,0.256-0.009,0.406-0.009c0.159,0,0.292,0,0.416,0.009c0.124,0,0.239,0.009,0.345,0.026
	c-0.062-0.301-0.097-0.76-0.124-1.371c-0.035-0.61-0.044-1.389-0.044-2.353c0-0.106,0-0.221,0.018-0.354
	c0.009-0.132,0.026-0.292,0.045-0.478h0.733c0.204,0,0.47,0.009,0.797,0.026c0.327,0.018,0.716,0.044,1.176,0.08
	c-0.018-0.044-0.026-0.088-0.035-0.132c-0.009-0.044-0.009-0.08-0.009-0.115c0-0.026,0-0.062,0.009-0.097
	c0-0.035,0.018-0.088,0.035-0.159c-0.53,0.009-1.07,0.018-1.618,0.026c-0.549,0.009-1.124,0.018-1.743,0.018
	c-0.53,0-1.079-0.009-1.636-0.018c-0.558-0.009-1.142-0.018-1.734-0.026c0.018,0.035,0.035,0.071,0.045,0.115
	C35.321,7.902,35.33,7.946,35.33,8c0,0.044-0.009,0.088-0.018,0.133c-0.01,0.035-0.019,0.08-0.045,0.124
	c0.46-0.035,0.841-0.062,1.159-0.08c0.318-0.018,0.575-0.026,0.761-0.026h0.796C38,8.336,38.018,8.521,38.027,8.725z M43.034,12.679
	c0.124-0.009,0.266-0.009,0.425-0.009c0.168,0,0.31,0,0.434,0.009c0.123,0,0.238,0.009,0.345,0.026
	c-0.044-0.336-0.089-0.707-0.106-1.105c-0.026-0.398-0.044-0.858-0.044-1.362c0-0.583,0.018-1.061,0.044-1.45
	c0.018-0.381,0.063-0.726,0.106-1.035c-0.142,0.009-0.274,0.018-0.407,0.026c-0.124,0-0.247,0.009-0.371,0.009
	s-0.248-0.009-0.372-0.009c-0.132-0.009-0.265-0.018-0.397-0.026c0.053,0.327,0.088,0.699,0.115,1.105
	c0.035,0.398,0.044,0.858,0.044,1.38c0,0.451-0.009,0.885-0.044,1.292c-0.027,0.417-0.063,0.805-0.115,1.176
	C42.794,12.688,42.901,12.679,43.034,12.679z M48.306,12.679c0.088-0.009,0.168-0.009,0.247-0.009c0.08,0,0.168,0,0.248,0.009
	c0.079,0,0.159,0.009,0.247,0.026c0.416-0.698,0.93-1.468,1.549-2.308s1.326-1.725,2.104-2.645
	c-0.159,0.009-0.273,0.018-0.354,0.018c-0.079,0.009-0.159,0.009-0.229,0.009c-0.133,0-0.319-0.009-0.575-0.026h-0.026
	c-0.15,0.301-0.328,0.637-0.549,1.008s-0.495,0.796-0.832,1.274l-1.265,1.849l-1.406-2.087l-0.15-0.221
	c-0.53-0.796-0.902-1.398-1.132-1.822c-0.124,0.009-0.248,0.009-0.39,0.018c-0.133,0-0.274,0.009-0.434,0.009
	S45.059,7.77,44.926,7.77c-0.141-0.009-0.273-0.009-0.406-0.018c0.929,1.167,1.689,2.176,2.3,3.025
	c0.61,0.867,1.018,1.504,1.221,1.928C48.138,12.688,48.226,12.679,48.306,12.679z M53.48,12.679
	c0.124-0.009,0.266-0.009,0.425-0.009s0.31,0,0.434,0.009c0.124,0,0.239,0.009,0.345,0.026c-0.044-0.336-0.088-0.707-0.114-1.105
	c-0.027-0.398-0.036-0.858-0.036-1.362c0-0.583,0.009-1.061,0.036-1.45c0.026-0.381,0.07-0.726,0.114-1.035
	C54.542,7.761,54.4,7.77,54.277,7.778c-0.124,0-0.248,0.009-0.372,0.009s-0.247-0.009-0.371-0.009
	c-0.133-0.009-0.266-0.018-0.398-0.026c0.054,0.327,0.089,0.699,0.115,1.105c0.026,0.398,0.044,0.858,0.044,1.38
	c0,0.451-0.018,0.885-0.044,1.292c-0.026,0.417-0.062,0.805-0.115,1.176C53.233,12.688,53.348,12.679,53.48,12.679z M17.585,10.237
	c0,3.716-3.034,6.759-6.759,6.759c-3.724,0-6.767-3.043-6.767-6.759c0-3.715,3.043-6.758,6.767-6.758
	C14.551,3.479,17.585,6.522,17.585,10.237z M8.35,9.981l1.38-2.017l1.521,2.273h1.486c-0.292-0.38-0.54-0.734-0.778-1.07
	c-0.664-0.938-1.106-1.636-1.327-2.096c-0.106,0.018-0.203,0.026-0.292,0.026c-0.089,0.009-0.177,0.009-0.266,0.009
	c-0.088,0-0.177,0-0.265-0.009c-0.089,0-0.187-0.018-0.283-0.026c-0.442,0.761-1,1.592-1.681,2.512
	c-0.673,0.911-1.434,1.875-2.291,2.884c0.177-0.018,0.31-0.027,0.389-0.027c0.089-0.008,0.177-0.008,0.257-0.008
	c0.133,0,0.345,0.008,0.619,0.026l0.035,0.009c0.15-0.336,0.354-0.699,0.593-1.106C7.687,10.963,7.988,10.503,8.35,9.981z
	 M16.09,8.008c-0.168,0.018-0.301,0.027-0.39,0.027c-0.088,0.009-0.168,0.009-0.257,0.009c-0.132,0-0.336-0.009-0.61-0.027
	l-0.035-0.009c-0.159,0.336-0.362,0.699-0.593,1.106c-0.247,0.398-0.539,0.858-0.911,1.38l-1.38,2.017l-1.521-2.273H8.917
	c0.283,0.38,0.53,0.734,0.778,1.071c0.654,0.938,1.105,1.636,1.326,2.096c0.098-0.018,0.195-0.026,0.283-0.026
	c0.098-0.009,0.187-0.009,0.274-0.009c0.089,0,0.168,0,0.257,0.009c0.088,0,0.186,0.018,0.283,0.026
	c0.442-0.761,0.999-1.592,1.681-2.512C14.471,9.981,15.241,9.017,16.09,8.008z"/>
</svg>
