<?xml version="1.0" encoding="utf-8"?>
<!-- Generator: Adobe Illustrator 16.0.0, SVG Export Plug-In . SVG Version: 6.00 Build 0)  -->
<!DOCTYPE svg PUBLIC "-//W3C//DTD SVG 1.1//EN" "http://www.w3.org/Graphics/SVG/1.1/DTD/svg11.dtd">
<svg version="1.1" id="Layer_1" xmlns="http://www.w3.org/2000/svg" xmlns:xlink="http://www.w3.org/1999/xlink" x="0px" y="0px"
	 width="32.75px" height="14.25px" viewBox="0 0 32.75 14.25" enable-background="new 0 0 32.75 14.25" xml:space="preserve">
<path fill="#FFFFFF" d="M29.289,4.454c-0.088-0.206-0.215-0.389-0.375-0.547c-0.161-0.157-0.348-0.28-0.556-0.366
	c-0.214-0.088-0.441-0.133-0.676-0.133h-5.595c-0.167-0.028-0.343,0.05-0.434,0.207c0,0,0,0,0,0l-3.462,5.983l-0.225-0.39l0,0
	L15.3,4.6c-0.194-0.357-0.484-0.658-0.838-0.868c-0.362-0.215-0.78-0.329-1.208-0.329h-2.885c-0.022,0-0.044,0.001-0.065,0.005
	H5.364c-0.11,0-0.215,0.042-0.295,0.12C4.986,3.606,4.94,3.715,4.94,3.828s0.046,0.222,0.128,0.301
	c0.08,0.077,0.185,0.12,0.295,0.12h2.753c0.823,0,1.468,0.633,1.468,1.441c0,0.811-0.645,1.446-1.467,1.446L5.31,7.131l0,0
	c-0.234,0-0.461,0.045-0.674,0.134C4.428,7.351,4.243,7.474,4.084,7.631c-0.16,0.157-0.285,0.341-0.372,0.547
	C3.622,8.39,3.576,8.617,3.576,8.852s0.047,0.463,0.139,0.676c0.088,0.205,0.215,0.389,0.376,0.547
	c0.16,0.156,0.347,0.279,0.555,0.365c0.214,0.09,0.442,0.134,0.675,0.134h5.663c0.233,0,0.422-0.188,0.422-0.419
	s-0.189-0.418-0.422-0.418H5.375c-0.495,0-0.896-0.397-0.896-0.885c0-0.492,0.39-0.876,0.888-0.876l5.624-0.001l0,0
	c0.313,0,0.616-0.059,0.9-0.175c0.005-0.002,0.01-0.004,0.015-0.007c0.003-0.001,0.007-0.003,0.011-0.004
	c0.005-0.002,0.01-0.004,0.015-0.006c0.004-0.002,0.008-0.004,0.012-0.005c0.005-0.002,0.01-0.004,0.015-0.007
	c0.004-0.001,0.008-0.003,0.012-0.005c0.005-0.002,0.01-0.004,0.015-0.007c0.004-0.002,0.008-0.003,0.013-0.006
	c0.004-0.002,0.009-0.004,0.014-0.007c0.004-0.002,0.008-0.004,0.013-0.005c0.005-0.002,0.01-0.005,0.015-0.007
	c0.004-0.002,0.008-0.004,0.012-0.006c0.005-0.002,0.01-0.005,0.014-0.007c0.004-0.002,0.008-0.004,0.012-0.006
	c0.005-0.002,0.01-0.005,0.015-0.008c0.002-0.001,0.005-0.002,0.008-0.004c0.194-0.103,0.371-0.231,0.529-0.385
	c0.214-0.209,0.382-0.453,0.499-0.726c0.109-0.255,0.17-0.525,0.181-0.805c0.001-0.047,0.002-0.095,0.002-0.142V5.69
	c0,0.031,0,0.063-0.002,0.094c-0.018,0.662-0.157,1.302-0.415,1.902c-0.105,0.246-0.229,0.482-0.37,0.706l0.565,0.977
	c0.195,0.357,0.485,0.658,0.838,0.869c0.362,0.215,0.78,0.328,1.208,0.328h3.217c0.149,0,0.29-0.08,0.366-0.209
	c0,0,0.001-0.001,0.001-0.002l0.584-1.009l0,0c0.494-0.853,1.218-2.103,1.84-3.176l0,0l1.114-1.926h5.371
	c0.494,0,0.897,0.397,0.897,0.884c0,0.492-0.391,0.876-0.889,0.876l-5.624,0.001c-0.301,0-0.594,0.055-0.87,0.164l-1.04,3.425
	c0.08,0.114,0.171,0.221,0.271,0.318c0.213,0.208,0.462,0.371,0.738,0.484c0.285,0.116,0.588,0.175,0.9,0.175h5.627
	c0.11,0,0.216-0.042,0.295-0.12c0.082-0.078,0.129-0.188,0.129-0.301c0-0.111-0.047-0.221-0.129-0.3
	c-0.079-0.077-0.185-0.12-0.295-0.12h-2.753c-0.823,0-1.468-0.633-1.468-1.441c0-0.811,0.645-1.446,1.467-1.446l2.809,0.005l0,0
	c0.233,0,0.46-0.045,0.674-0.134c0.206-0.086,0.393-0.209,0.551-0.366c0.16-0.158,0.285-0.342,0.373-0.547
	c0.09-0.212,0.137-0.439,0.137-0.673C29.43,4.895,29.382,4.667,29.289,4.454z"/>
</svg>
