<?xml version="1.0" encoding="utf-8"?>
<!-- Generator: Adobe Illustrator 16.0.0, SVG Export Plug-In . SVG Version: 6.00 Build 0)  -->
<!DOCTYPE svg PUBLIC "-//W3C//DTD SVG 1.1//EN" "http://www.w3.org/Graphics/SVG/1.1/DTD/svg11.dtd">
<svg version="1.1" id="Layer_1" xmlns="http://www.w3.org/2000/svg" xmlns:xlink="http://www.w3.org/1999/xlink" x="0px" y="0px"
	 width="124.028px" height="151.829px" viewBox="0 0 124.028 151.829" enable-background="new 0 0 124.028 151.829"
	 xml:space="preserve">
<g>
	<g>
		<path d="M14.522,129.74c-1.151,0-2.186-0.411-3.102-1.232l0.374-0.429c0.433,0.403,0.862,0.694,1.287,0.874s0.917,0.27,1.474,0.27
			c0.572,0,1.04-0.145,1.402-0.435c0.363-0.289,0.544-0.654,0.544-1.094v-0.022c0-0.425-0.152-0.763-0.457-1.012
			s-0.878-0.458-1.721-0.627c-0.924-0.184-1.588-0.444-1.991-0.781s-0.605-0.799-0.605-1.386v-0.022c0-0.572,0.234-1.052,0.704-1.44
			c0.469-0.389,1.06-0.583,1.771-0.583c0.542,0,1.018,0.075,1.424,0.225c0.407,0.15,0.812,0.388,1.215,0.71l-0.363,0.451
			c-0.667-0.579-1.434-0.869-2.299-0.869c-0.558,0-1.01,0.14-1.359,0.418c-0.348,0.278-0.522,0.623-0.522,1.034v0.021
			c0,0.434,0.156,0.777,0.468,1.034c0.312,0.257,0.904,0.474,1.776,0.649c0.887,0.184,1.531,0.441,1.931,0.775
			c0.399,0.334,0.6,0.783,0.6,1.348v0.021c0,0.616-0.239,1.12-0.715,1.513S15.27,129.74,14.522,129.74z"/>
		<path d="M18.482,129.629v-7.7h0.572v7.7H18.482z"/>
		<path d="M23.476,129.74c-1.151,0-2.186-0.411-3.102-1.232l0.374-0.429c0.433,0.403,0.862,0.694,1.287,0.874s0.917,0.27,1.474,0.27
			c0.572,0,1.04-0.145,1.402-0.435c0.363-0.289,0.544-0.654,0.544-1.094v-0.022c0-0.425-0.152-0.763-0.457-1.012
			s-0.878-0.458-1.721-0.627c-0.924-0.184-1.588-0.444-1.991-0.781s-0.605-0.799-0.605-1.386v-0.022c0-0.572,0.234-1.052,0.704-1.44
			c0.469-0.389,1.06-0.583,1.771-0.583c0.542,0,1.018,0.075,1.424,0.225c0.407,0.15,0.812,0.388,1.215,0.71l-0.363,0.451
			c-0.667-0.579-1.434-0.869-2.299-0.869c-0.558,0-1.01,0.14-1.359,0.418c-0.348,0.278-0.522,0.623-0.522,1.034v0.021
			c0,0.434,0.156,0.777,0.468,1.034c0.312,0.257,0.904,0.474,1.776,0.649c0.887,0.184,1.531,0.441,1.931,0.775
			c0.399,0.334,0.6,0.783,0.6,1.348v0.021c0,0.616-0.239,1.12-0.715,1.513S24.224,129.74,23.476,129.74z"/>
		<path d="M29.328,129.629v-7.172h-2.684v-0.528h5.94v0.528H29.9v7.172H29.328z"/>
		<path d="M33.772,129.629v-7.7h5.478v0.528h-4.906v3.024h4.411v0.528h-4.411v3.091h4.961v0.528H33.772z"/>
		<path d="M40.592,129.629v-7.7h0.539l3.091,4.554l3.091-4.554h0.539v7.7H47.28v-6.688l-3.047,4.434h-0.044l-3.047-4.434v6.688
			H40.592z"/>
		<path d="M48.93,129.629l3.586-7.755h0.55l3.586,7.755h-0.627l-0.979-2.156h-4.543l-0.979,2.156H48.93z M50.745,126.957h4.059
			l-2.024-4.455L50.745,126.957z"/>
		<path d="M60.479,129.629v-7.7h2.794c0.857,0,1.549,0.209,2.073,0.627s0.786,0.994,0.786,1.728v0.021
			c0,0.777-0.288,1.381-0.863,1.81c-0.576,0.429-1.289,0.644-2.14,0.644h-2.079v2.871H60.479z M61.051,126.23h2.112
			c0.719,0,1.298-0.172,1.738-0.517c0.439-0.345,0.659-0.803,0.659-1.375v-0.022c0-0.594-0.211-1.052-0.632-1.375
			c-0.422-0.322-0.988-0.483-1.7-0.483h-2.178V126.23z"/>
		<path d="M67.277,129.629v-7.7h3.234c0.938,0,1.661,0.253,2.167,0.759c0.389,0.39,0.583,0.866,0.583,1.431v0.021
			c0,0.624-0.205,1.122-0.616,1.496c-0.41,0.374-0.957,0.609-1.639,0.704l2.541,3.289h-0.726l-2.453-3.19h-2.52v3.19H67.277z
			 M67.849,125.922h2.596c0.66,0,1.199-0.157,1.617-0.473s0.627-0.744,0.627-1.287v-0.022c0-0.521-0.194-0.931-0.583-1.231
			s-0.931-0.451-1.628-0.451h-2.629V125.922z"/>
		<path d="M74.757,129.629v-7.7h0.572v7.7H74.757z"/>
		<path d="M77.144,129.629v-7.7h0.539l3.092,4.554l3.091-4.554h0.539v7.7h-0.572v-6.688l-3.047,4.434h-0.044l-3.047-4.434v6.688
			H77.144z"/>
		<path d="M85.483,129.629l3.586-7.755h0.55l3.586,7.755h-0.627l-0.979-2.156h-4.543l-0.979,2.156H85.483z M87.297,126.957h4.06
			l-2.024-4.455L87.297,126.957z"/>
		<path d="M94.282,129.629v-7.7h3.234c0.938,0,1.661,0.253,2.167,0.759c0.389,0.39,0.583,0.866,0.583,1.431v0.021
			c0,0.624-0.205,1.122-0.616,1.496c-0.41,0.374-0.957,0.609-1.639,0.704l2.541,3.289h-0.726l-2.453-3.19h-2.52v3.19H94.282z
			 M94.854,125.922h2.596c0.66,0,1.199-0.157,1.617-0.473s0.627-0.744,0.627-1.287v-0.022c0-0.521-0.194-0.931-0.583-1.231
			s-0.931-0.451-1.628-0.451h-2.629V125.922z"/>
		<path d="M101.762,129.629v-7.7h0.572v7.7H101.762z"/>
		<path d="M110.463,128.584c-0.726,0.785-1.657,1.177-2.794,1.177s-2.064-0.389-2.783-1.166s-1.078-1.708-1.078-2.794v-0.021
			c0-1.086,0.363-2.021,1.089-2.806c0.727-0.784,1.657-1.177,2.794-1.177s2.064,0.389,2.783,1.166s1.078,1.709,1.078,2.794v0.022
			C111.552,126.865,111.189,127.799,110.463,128.584z M105.343,128.232c0.627,0.675,1.409,1.013,2.348,1.013
			c0.939,0,1.718-0.334,2.338-1.001s0.93-1.481,0.93-2.442v-0.021c0-0.961-0.313-1.778-0.94-2.453s-1.41-1.013-2.349-1.013
			s-1.718,0.334-2.338,1.001c-0.619,0.668-0.929,1.481-0.929,2.442v0.022C104.403,126.74,104.716,127.558,105.343,128.232z"/>
		<path fill="#BE1E2D" d="M0,151.829v-16.592h3.656v16.592H0z"/>
		<path fill="#BE1E2D" d="M6.614,151.829v-16.592H9.98l7.775,10.217v-10.217h3.598v16.592h-3.101l-8.041-10.54v10.54H6.614z"/>
		<path fill="#BE1E2D" d="M24.138,151.829v-16.592h12.507v3.252h-8.886v3.366h7.821v3.24h-7.821v3.482h9.013v3.251H24.138z"/>
		<path fill="#BE1E2D" d="M44.727,152.06c-1.28,0-2.53-0.224-3.749-0.671s-2.314-1.107-3.286-1.979l2.152-2.58
			c1.635,1.342,3.286,2.013,4.952,2.013c0.748,0,1.334-0.139,1.759-0.416c0.424-0.278,0.636-0.66,0.636-1.146v-0.047
			c0-0.323-0.085-0.594-0.254-0.81c-0.17-0.216-0.496-0.43-0.978-0.642c-0.482-0.213-1.186-0.435-2.112-0.666
			c-0.524-0.131-0.978-0.256-1.359-0.376c-0.382-0.119-0.777-0.262-1.186-0.428s-0.752-0.337-1.03-0.515
			c-0.277-0.178-0.545-0.39-0.804-0.637c-0.259-0.247-0.465-0.519-0.619-0.815s-0.276-0.639-0.364-1.024
			c-0.089-0.386-0.133-0.81-0.133-1.272v-0.046c0-1.497,0.542-2.704,1.625-3.622c1.083-0.917,2.478-1.376,4.183-1.376
			c2.36,0,4.412,0.701,6.155,2.105l-1.897,2.754c-1.582-1.096-3.016-1.644-4.304-1.644c-0.679,0-1.205,0.135-1.579,0.405
			c-0.374,0.27-0.561,0.617-0.561,1.041v0.047c0,0.532,0.231,0.937,0.694,1.215c0.463,0.277,1.427,0.602,2.893,0.972
			c0.887,0.231,1.637,0.479,2.25,0.746c0.613,0.266,1.155,0.592,1.625,0.978s0.817,0.847,1.042,1.383
			c0.224,0.536,0.335,1.159,0.335,1.868v0.047c0,1.611-0.558,2.871-1.672,3.777C48.026,151.607,46.555,152.06,44.727,152.06z"/>
		<path fill="#BE1E2D" d="M56.304,151.829v-13.225H51.26v-3.367h13.733v3.367h-5.044v13.225H56.304z"/>
		<path fill="#BE1E2D" d="M63.057,151.829l7.115-16.707h3.355l7.115,16.707h-3.818l-1.516-3.726h-7.011l-1.517,3.726H63.057z
			 M69.593,144.886h4.408l-2.198-5.38L69.593,144.886z"/>
		<path fill="#BE1E2D" d="M82.003,151.829v-16.592h7.705c1.905,0,3.348,0.49,4.327,1.47c0.764,0.764,1.146,1.705,1.146,2.823v0.046
			c0,1.566-0.729,2.758-2.187,3.575c1.025,0.386,1.801,0.896,2.325,1.533s0.787,1.487,0.787,2.551v0.047
			c0,1.48-0.556,2.609-1.666,3.384c-1.11,0.775-2.626,1.163-4.547,1.163H82.003z M85.555,141.948h3.367
			c1.751,0,2.626-0.586,2.626-1.759v-0.046c0-0.548-0.204-0.968-0.613-1.262c-0.409-0.293-0.999-0.439-1.771-0.439h-3.609V141.948z
			 M85.555,148.635h4.339c0.825,0,1.462-0.15,1.909-0.451s0.671-0.752,0.671-1.354v-0.047c0-0.57-0.222-1.014-0.665-1.33
			c-0.444-0.316-1.121-0.475-2.031-0.475h-4.223V148.635z"/>
		<path fill="#BE1E2D" d="M97.919,151.829v-16.592h3.645v13.271h8.272v3.32H97.919z"/>
		<path fill="#BE1E2D" d="M111.394,151.829v-16.592h12.507v3.252h-8.886v3.366h7.821v3.24h-7.821v3.482h9.013v3.251H111.394z"/>
	</g>
	<g>
		<path fill="#F1F2F2" d="M61.072,0C31.333,0,7.236,24.092,7.236,53.817c0,29.731,24.097,53.823,53.835,53.823
			c29.727,0,53.806-24.092,53.806-53.823C114.877,24.092,90.798,0,61.072,0z"/>
		<path fill="#BE1E2D" d="M61.064,9.494C36.569,9.5,16.727,29.345,16.724,53.827c0,24.479,19.853,44.319,44.337,44.319
			c24.49,0.01,44.325-19.831,44.33-44.324C105.391,29.334,85.545,9.494,61.064,9.494z M78.483,47.801l-6.024,6.025l6.405,6.406
			c3.134,3.135,3.158,8.268,0.01,11.416c-3.152,3.148-8.251,3.129-11.408-0.01l-6.421-6.427l-6.396,6.437
			c-3.152,3.148-8.261,3.139-11.409-0.01c-3.153-3.158-3.153-8.24,0-11.396l6.417-6.426l-6.036-6.025
			c-3.143-3.158-3.153-8.251-0.005-11.399c3.148-3.148,8.251-3.148,11.404,0l6.036,6.025l6.03-6.025
			c3.147-3.148,8.245-3.148,11.398,0C81.626,39.541,81.641,44.653,78.483,47.801z"/>
	</g>
</g>
</svg>
