<?xml version="1.0" encoding="utf-8"?>
<!-- Generator: Adobe Illustrator 16.0.0, SVG Export Plug-In . SVG Version: 6.00 Build 0)  -->
<!DOCTYPE svg PUBLIC "-//W3C//DTD SVG 1.1//EN" "http://www.w3.org/Graphics/SVG/1.1/DTD/svg11.dtd">
<svg version="1.1" id="Layer_1" xmlns="http://www.w3.org/2000/svg" xmlns:xlink="http://www.w3.org/1999/xlink" x="0px" y="0px"
	 width="107.641px" height="152.061px" viewBox="0 0 107.641 152.061" enable-background="new 0 0 107.641 152.061"
	 xml:space="preserve">
<g>
	<g>
		<path fill="#F1F2F2" d="M53.835,0C24.097,0,0,24.092,0,53.817c0,29.732,24.097,53.822,53.835,53.822
			c29.727,0,53.806-24.09,53.806-53.822C107.641,24.092,83.562,0,53.835,0z"/>
		<path fill="#69B800" d="M53.833,9.385c-24.552,0-44.448,19.891-44.448,44.433c0,24.546,19.896,44.436,44.448,44.436
			c24.542,0,44.422-19.89,44.422-44.436C98.255,29.276,78.375,9.385,53.833,9.385z M79.74,48.384L52.364,75.753
			c-1.97,1.976-4.707,2.717-7.253,2.216c-1.544-0.285-3.018-1.022-4.206-2.216L26.073,60.926c-3.153-3.153-3.138-8.261,0.005-11.409
			c3.153-3.152,8.246-3.148,11.398,0l9.158,9.159l21.697-21.7c3.148-3.149,8.261-3.138,11.408,0.01
			C82.888,40.139,82.888,45.231,79.74,48.384z"/>
	</g>
	<g>
		<path d="M7.286,129.74c-1.151,0-2.186-0.412-3.102-1.232l0.374-0.43c0.433,0.404,0.862,0.695,1.287,0.875s0.917,0.27,1.474,0.27
			c0.572,0,1.04-0.145,1.402-0.436c0.363-0.289,0.544-0.654,0.544-1.094v-0.021c0-0.426-0.152-0.764-0.457-1.012
			c-0.304-0.25-0.878-0.459-1.721-0.627c-0.924-0.184-1.588-0.445-1.991-0.781c-0.403-0.338-0.605-0.799-0.605-1.387v-0.021
			c0-0.572,0.234-1.053,0.704-1.441c0.469-0.389,1.06-0.582,1.771-0.582c0.542,0,1.018,0.074,1.424,0.225
			c0.407,0.15,0.812,0.387,1.215,0.709l-0.363,0.451c-0.667-0.578-1.434-0.869-2.299-0.869c-0.558,0-1.01,0.141-1.359,0.418
			c-0.348,0.279-0.522,0.623-0.522,1.035v0.021c0,0.434,0.156,0.777,0.468,1.033c0.312,0.258,0.904,0.475,1.776,0.65
			c0.887,0.184,1.531,0.441,1.931,0.775c0.399,0.334,0.6,0.783,0.6,1.348v0.021c0,0.615-0.239,1.119-0.715,1.512
			S8.034,129.74,7.286,129.74z"/>
		<path d="M11.246,129.629v-7.699h0.572v7.699H11.246z"/>
		<path d="M16.239,129.74c-1.151,0-2.186-0.412-3.102-1.232l0.374-0.43c0.433,0.404,0.862,0.695,1.287,0.875s0.917,0.27,1.474,0.27
			c0.572,0,1.04-0.145,1.402-0.436c0.363-0.289,0.544-0.654,0.544-1.094v-0.021c0-0.426-0.152-0.764-0.457-1.012
			c-0.304-0.25-0.878-0.459-1.721-0.627c-0.924-0.184-1.588-0.445-1.991-0.781c-0.403-0.338-0.605-0.799-0.605-1.387v-0.021
			c0-0.572,0.234-1.053,0.704-1.441c0.469-0.389,1.06-0.582,1.771-0.582c0.542,0,1.018,0.074,1.424,0.225
			c0.407,0.15,0.812,0.387,1.215,0.709l-0.363,0.451c-0.667-0.578-1.434-0.869-2.299-0.869c-0.558,0-1.01,0.141-1.359,0.418
			c-0.348,0.279-0.522,0.623-0.522,1.035v0.021c0,0.434,0.156,0.777,0.468,1.033c0.312,0.258,0.904,0.475,1.776,0.65
			c0.887,0.184,1.531,0.441,1.931,0.775c0.399,0.334,0.6,0.783,0.6,1.348v0.021c0,0.615-0.239,1.119-0.715,1.512
			S16.987,129.74,16.239,129.74z"/>
		<path d="M22.091,129.629v-7.172h-2.684v-0.527h5.94v0.527h-2.684v7.172H22.091z"/>
		<path d="M26.535,129.629v-7.699h5.478v0.527h-4.906v3.025h4.411v0.527h-4.411v3.092h4.961v0.527H26.535z"/>
		<path d="M33.355,129.629v-7.699h0.539l3.091,4.553l3.091-4.553h0.539v7.699h-0.572v-6.688l-3.047,4.434h-0.044l-3.047-4.434v6.688
			H33.355z"/>
		<path d="M41.693,129.629l3.586-7.754h0.55l3.586,7.754h-0.627l-0.979-2.156h-4.543l-0.979,2.156H41.693z M43.508,126.957h4.059
			l-2.024-4.455L43.508,126.957z"/>
		<path d="M53.244,129.629v-7.699h2.795c0.857,0,1.549,0.209,2.072,0.627c0.525,0.418,0.787,0.994,0.787,1.727v0.021
			c0,0.777-0.289,1.381-0.863,1.811c-0.576,0.428-1.289,0.643-2.141,0.643h-2.079v2.871H53.244z M53.815,126.23h2.112
			c0.719,0,1.299-0.172,1.738-0.518c0.439-0.344,0.66-0.803,0.66-1.375v-0.021c0-0.594-0.211-1.053-0.633-1.375
			s-0.988-0.484-1.699-0.484h-2.178V126.23z"/>
		<path d="M60.041,129.629v-7.699h3.234c0.938,0,1.661,0.252,2.167,0.758c0.389,0.391,0.583,0.867,0.583,1.432v0.021
			c0,0.623-0.205,1.121-0.616,1.496c-0.41,0.373-0.957,0.609-1.639,0.703l2.541,3.289h-0.726l-2.453-3.189h-2.52v3.189H60.041z
			 M60.613,125.922h2.596c0.66,0,1.199-0.156,1.617-0.473c0.418-0.314,0.627-0.744,0.627-1.287v-0.021
			c0-0.521-0.194-0.932-0.583-1.232s-0.931-0.451-1.628-0.451h-2.629V125.922z"/>
		<path d="M67.521,129.629v-7.699h0.572v7.699H67.521z"/>
		<path d="M69.908,129.629v-7.699h0.539l3.092,4.553l3.091-4.553h0.539v7.699h-0.572v-6.688l-3.047,4.434h-0.044l-3.047-4.434v6.688
			H69.908z"/>
		<path d="M78.247,129.629l3.586-7.754h0.55l3.586,7.754h-0.627l-0.979-2.156h-4.543l-0.979,2.156H78.247z M80.061,126.957h4.06
			l-2.024-4.455L80.061,126.957z"/>
		<path d="M87.044,129.629v-7.699h3.234c0.938,0,1.661,0.252,2.167,0.758c0.389,0.391,0.583,0.867,0.583,1.432v0.021
			c0,0.623-0.205,1.121-0.616,1.496c-0.41,0.373-0.957,0.609-1.639,0.703l2.541,3.289h-0.726l-2.453-3.189h-2.52v3.189H87.044z
			 M87.617,125.922h2.596c0.66,0,1.199-0.156,1.617-0.473c0.418-0.314,0.627-0.744,0.627-1.287v-0.021
			c0-0.521-0.194-0.932-0.583-1.232s-0.931-0.451-1.628-0.451h-2.629V125.922z"/>
		<path d="M94.525,129.629v-7.699h0.572v7.699H94.525z"/>
		<path d="M103.226,128.584c-0.726,0.785-1.657,1.178-2.794,1.178s-2.064-0.389-2.783-1.166s-1.078-1.709-1.078-2.795v-0.021
			c0-1.086,0.363-2.02,1.089-2.805c0.727-0.785,1.657-1.178,2.794-1.178s2.064,0.389,2.783,1.166s1.078,1.709,1.078,2.795v0.021
			C104.315,126.865,103.952,127.799,103.226,128.584z M98.106,128.232c0.627,0.674,1.409,1.012,2.348,1.012
			c0.939,0,1.718-0.334,2.338-1c0.62-0.668,0.93-1.482,0.93-2.443v-0.021c0-0.961-0.313-1.777-0.94-2.453
			c-0.627-0.674-1.41-1.012-2.349-1.012s-1.718,0.334-2.338,1c-0.619,0.668-0.929,1.482-0.929,2.443v0.021
			C97.166,126.74,97.479,127.559,98.106,128.232z"/>
		<path fill="#69B800" d="M4.752,151.828v-16.592h12.507v3.252H8.373v3.367h7.821v3.24H8.373v3.482h9.013v3.25H4.752z"/>
		<path fill="#69B800" d="M25.342,152.061c-1.28,0-2.53-0.225-3.749-0.672s-2.314-1.107-3.286-1.979l2.152-2.58
			c1.635,1.342,3.286,2.014,4.952,2.014c0.748,0,1.334-0.139,1.759-0.416c0.424-0.279,0.636-0.66,0.636-1.146v-0.047
			c0-0.322-0.085-0.594-0.254-0.809c-0.17-0.217-0.496-0.43-0.978-0.643c-0.482-0.213-1.186-0.434-2.112-0.666
			c-0.524-0.131-0.978-0.256-1.359-0.375s-0.777-0.262-1.186-0.428s-0.752-0.338-1.03-0.516c-0.277-0.178-0.545-0.389-0.804-0.637
			c-0.259-0.246-0.465-0.518-0.619-0.814s-0.276-0.639-0.364-1.025c-0.089-0.385-0.133-0.809-0.133-1.271v-0.047
			c0-1.496,0.542-2.703,1.625-3.621s2.478-1.377,4.183-1.377c2.36,0,4.412,0.701,6.155,2.105l-1.897,2.754
			c-1.582-1.096-3.016-1.643-4.304-1.643c-0.679,0-1.205,0.135-1.579,0.404s-0.561,0.617-0.561,1.041v0.047
			c0,0.533,0.231,0.938,0.694,1.215c0.463,0.277,1.427,0.602,2.893,0.973c0.887,0.23,1.637,0.479,2.25,0.746
			c0.613,0.266,1.155,0.592,1.625,0.977c0.471,0.387,0.817,0.848,1.042,1.383c0.224,0.537,0.335,1.16,0.335,1.869v0.047
			c0,1.611-0.558,2.871-1.672,3.777C28.641,151.607,27.17,152.061,25.342,152.061z"/>
		<path fill="#69B800" d="M36.918,151.828v-13.225h-5.044v-3.367h13.733v3.367h-5.044v13.225H36.918z"/>
		<path fill="#69B800" d="M43.671,151.828l7.116-16.707h3.355l7.115,16.707h-3.818l-1.516-3.725h-7.011l-1.516,3.725H43.671z
			 M50.208,144.887h4.408l-2.198-5.381L50.208,144.887z"/>
		<path fill="#69B800" d="M62.619,151.828v-16.592h7.705c1.905,0,3.348,0.49,4.327,1.471c0.764,0.764,1.146,1.705,1.146,2.822v0.047
			c0,1.566-0.729,2.758-2.187,3.574c1.025,0.387,1.801,0.896,2.325,1.533s0.787,1.488,0.787,2.551v0.047
			c0,1.48-0.556,2.609-1.666,3.385s-2.626,1.162-4.547,1.162H62.619z M66.17,141.947h3.367c1.751,0,2.626-0.586,2.626-1.758v-0.047
			c0-0.547-0.204-0.967-0.613-1.262c-0.409-0.293-0.999-0.439-1.771-0.439H66.17V141.947z M66.17,148.635h4.339
			c0.825,0,1.462-0.15,1.909-0.451s0.671-0.752,0.671-1.354v-0.047c0-0.57-0.222-1.014-0.665-1.33
			c-0.444-0.316-1.121-0.475-2.031-0.475H66.17V148.635z"/>
		<path fill="#69B800" d="M78.535,151.828v-16.592h3.645v13.271h8.272v3.32H78.535z"/>
		<path fill="#69B800" d="M92.009,151.828v-16.592h12.507v3.252H95.63v3.367h7.821v3.24H95.63v3.482h9.013v3.25H92.009z"/>
	</g>
</g>
</svg>
