<?xml version="1.0" encoding="utf-8"?>
<!-- Generator: Adobe Illustrator 16.0.0, SVG Export Plug-In . SVG Version: 6.00 Build 0)  -->
<!DOCTYPE svg PUBLIC "-//W3C//DTD SVG 1.1//EN" "http://www.w3.org/Graphics/SVG/1.1/DTD/svg11.dtd">
<svg version="1.1" id="Layer_1" xmlns="http://www.w3.org/2000/svg" xmlns:xlink="http://www.w3.org/1999/xlink" x="0px" y="0px"
	 width="99.89px" height="151.426px" viewBox="0 0 99.89 151.426" enable-background="new 0 0 99.89 151.426" xml:space="preserve">
<g>
	<g>
		<path d="M23.664,129.227v-7.172H20.98v-0.529h5.94v0.529h-2.684v7.172H23.664z"/>
		<path d="M28.108,129.227v-7.701h5.478v0.529H28.68v3.023h4.411v0.529H28.68v3.09h4.961v0.529H28.108z"/>
		<path d="M34.928,129.227v-7.701h3.234c0.938,0,1.661,0.254,2.167,0.76c0.389,0.389,0.583,0.865,0.583,1.43v0.021
			c0,0.625-0.205,1.123-0.616,1.496c-0.411,0.375-0.957,0.609-1.639,0.705l2.541,3.289h-0.726l-2.453-3.191H35.5v3.191H34.928z
			 M35.5,125.52h2.596c0.66,0,1.199-0.158,1.617-0.473c0.418-0.316,0.627-0.744,0.627-1.287v-0.023c0-0.52-0.194-0.93-0.583-1.23
			c-0.389-0.301-0.932-0.451-1.628-0.451H35.5V125.52z"/>
		<path d="M45.818,129.357c-1.093,0-2.004-0.381-2.733-1.143c-0.73-0.764-1.094-1.701-1.094-2.816v-0.021
			c0-1.102,0.366-2.039,1.1-2.816s1.65-1.166,2.75-1.166c0.638,0,1.186,0.104,1.645,0.313s0.908,0.516,1.348,0.92l-0.407,0.418
			c-0.777-0.756-1.643-1.135-2.596-1.135c-0.924,0-1.696,0.332-2.315,0.996c-0.62,0.664-0.93,1.48-0.93,2.447v0.023
			c0,0.975,0.313,1.797,0.94,2.463c0.627,0.668,1.399,1.002,2.315,1.002c0.535,0,1.008-0.1,1.419-0.297
			c0.411-0.199,0.821-0.5,1.232-0.902l0.385,0.373c-0.447,0.441-0.909,0.773-1.386,1.002
			C47.013,129.244,46.456,129.357,45.818,129.357z"/>
		<path d="M49.899,129.227v-7.701h5.478v0.529H50.47v3.023h4.412v0.529H50.47v3.09h4.961v0.529H49.899z"/>
		<path d="M56.718,129.227v-7.701h3.234c0.938,0,1.661,0.254,2.167,0.76c0.389,0.389,0.583,0.865,0.583,1.43v0.021
			c0,0.625-0.205,1.123-0.616,1.496c-0.41,0.375-0.957,0.609-1.639,0.705l2.541,3.289h-0.726l-2.453-3.191h-2.52v3.191H56.718z
			 M57.291,125.52h2.596c0.66,0,1.199-0.158,1.617-0.473c0.418-0.316,0.627-0.744,0.627-1.287v-0.023c0-0.52-0.194-0.93-0.583-1.23
			s-0.931-0.451-1.628-0.451h-2.629V125.52z"/>
		<path d="M70.436,128.182c-0.726,0.785-1.657,1.176-2.794,1.176s-2.064-0.389-2.783-1.166s-1.078-1.707-1.078-2.793v-0.021
			c0-1.086,0.363-2.021,1.089-2.807c0.727-0.783,1.657-1.176,2.794-1.176s2.064,0.389,2.783,1.166s1.078,1.709,1.078,2.793v0.023
			C71.525,126.461,71.162,127.396,70.436,128.182z M65.316,127.828c0.627,0.676,1.409,1.014,2.348,1.014
			c0.939,0,1.718-0.334,2.338-1.002c0.62-0.666,0.93-1.48,0.93-2.441v-0.021c0-0.961-0.313-1.779-0.94-2.453
			c-0.627-0.676-1.41-1.014-2.349-1.014s-1.718,0.334-2.338,1.002c-0.619,0.668-0.929,1.48-0.929,2.441v0.023
			C64.375,126.336,64.689,127.154,65.316,127.828z"/>
		<path d="M75.474,129.336c-1.151,0-2.186-0.41-3.102-1.232l0.374-0.428c0.433,0.402,0.861,0.693,1.286,0.873
			c0.426,0.18,0.917,0.27,1.475,0.27c0.572,0,1.039-0.145,1.402-0.434s0.545-0.654,0.545-1.094v-0.023
			c0-0.424-0.152-0.762-0.457-1.012c-0.305-0.248-0.878-0.457-1.722-0.627c-0.924-0.184-1.588-0.443-1.991-0.781
			c-0.403-0.336-0.604-0.799-0.604-1.385v-0.023c0-0.572,0.234-1.051,0.704-1.439c0.469-0.389,1.06-0.584,1.771-0.584
			c0.543,0,1.018,0.076,1.425,0.225c0.407,0.15,0.813,0.389,1.216,0.711l-0.363,0.451c-0.667-0.58-1.434-0.869-2.299-0.869
			c-0.558,0-1.011,0.139-1.358,0.418c-0.349,0.277-0.522,0.623-0.522,1.033v0.021c0,0.434,0.155,0.777,0.467,1.035
			c0.313,0.256,0.904,0.473,1.777,0.648c0.887,0.184,1.53,0.441,1.93,0.775c0.4,0.334,0.6,0.783,0.6,1.348v0.021
			c0,0.617-0.238,1.121-0.715,1.514S76.222,129.336,75.474,129.336z"/>
		<path fill="#69B800" d="M0,151.426v-16.592h12.507v3.252H3.621v3.365h7.821v3.24H3.621v3.482h9.013v3.252H0z"/>
		<path fill="#69B800" d="M20.59,151.656c-1.28,0-2.53-0.223-3.749-0.67s-2.314-1.107-3.286-1.979l2.152-2.58
			c1.635,1.342,3.286,2.012,4.952,2.012c0.748,0,1.334-0.139,1.759-0.416s0.636-0.66,0.636-1.145v-0.047
			c0-0.324-0.085-0.594-0.254-0.811c-0.17-0.215-0.496-0.43-0.978-0.641c-0.482-0.213-1.186-0.436-2.112-0.666
			c-0.524-0.131-0.978-0.256-1.359-0.377c-0.382-0.119-0.777-0.262-1.186-0.428s-0.752-0.336-1.03-0.514
			c-0.277-0.178-0.545-0.391-0.804-0.637c-0.259-0.248-0.465-0.52-0.619-0.816s-0.276-0.639-0.364-1.023
			c-0.089-0.387-0.133-0.811-0.133-1.273v-0.045c0-1.498,0.542-2.705,1.625-3.623c1.083-0.916,2.478-1.375,4.183-1.375
			c2.36,0,4.412,0.701,6.155,2.105l-1.897,2.754c-1.582-1.096-3.016-1.645-4.304-1.645c-0.679,0-1.205,0.135-1.579,0.406
			c-0.374,0.27-0.561,0.617-0.561,1.041v0.047c0,0.531,0.231,0.936,0.694,1.215c0.463,0.277,1.427,0.602,2.893,0.971
			c0.887,0.232,1.637,0.48,2.25,0.746s1.155,0.592,1.625,0.979c0.471,0.385,0.817,0.846,1.042,1.383
			c0.224,0.535,0.335,1.158,0.335,1.867v0.047c0,1.611-0.558,2.871-1.672,3.777C23.889,151.203,22.418,151.656,20.59,151.656z"/>
		<path fill="#69B800" d="M32.167,151.426v-13.225h-5.044v-3.367h13.733v3.367h-5.044v13.225H32.167z"/>
		<path fill="#69B800" d="M38.919,151.426l7.116-16.707h3.355l7.116,16.707h-3.818l-1.516-3.727H44.16l-1.516,3.727H38.919z
			 M45.456,144.482h4.408l-2.198-5.379L45.456,144.482z"/>
		<path fill="#69B800" d="M57.866,151.426v-16.592h7.705c1.905,0,3.348,0.49,4.327,1.469c0.764,0.764,1.146,1.705,1.146,2.824v0.045
			c0,1.566-0.729,2.758-2.187,3.576c1.025,0.385,1.801,0.896,2.325,1.533s0.787,1.486,0.787,2.551v0.047
			c0,1.48-0.556,2.609-1.666,3.383c-1.11,0.775-2.626,1.164-4.547,1.164H57.866z M61.417,141.545h3.367
			c1.751,0,2.626-0.586,2.626-1.76v-0.045c0-0.549-0.204-0.969-0.613-1.262s-0.999-0.439-1.771-0.439h-3.609V141.545z
			 M61.417,148.232h4.339c0.825,0,1.462-0.15,1.909-0.451s0.671-0.752,0.671-1.354v-0.047c0-0.57-0.222-1.014-0.665-1.33
			c-0.444-0.316-1.121-0.475-2.031-0.475h-4.223V148.232z"/>
		<path fill="#69B800" d="M73.782,151.426v-16.592h3.645v13.271h8.272v3.32H73.782z"/>
		<path fill="#69B800" d="M87.256,151.426v-16.592h12.507v3.252h-8.886v3.365h7.821v3.24h-7.821v3.482h9.013v3.252H87.256z"/>
	</g>
	<g>
		<g>
			<path fill="#A7A9AC" d="M47.11,105.508c-6.938,0-13.074-4.129-15.686-10.537l-3.623,1.431c-1.579,0.659-3.331,1.011-5.127,1.011
				c-3.39,0-6.637-1.259-9.144-3.544c-4.116-3.895-5.354-9.912-3.144-15.031l0.722-1.676c1.488-3.423,1.553-7.362,0.184-10.821
				l-2.857-7.234c-4.67-11.778-2.015-25.143,6.542-34.233l-0.605-1.536c-0.083-0.208-0.166-0.428-0.242-0.648
				c-1.19-3.558-0.927-7.308,0.722-10.613c1.649-3.306,4.487-5.772,7.991-6.943l0.147-0.046c1.313-0.389,2.668-0.586,4.03-0.586
				c5.904,0,11.249,3.722,13.3,9.262l0.378,0.959c12.586,0.778,23.5,8.667,28.16,20.541l2.6,6.579
				c1.242,3.17,3.576,5.784,6.577,7.372l3.63,1.87c2.858,1.525,5.038,3.964,6.194,6.898l0.126,0.308
				c2.708,6.874-0.652,14.609-7.47,17.295l-17.584,6.944c3.293,8.651-0.989,18.401-9.609,21.796
				C51.33,105.109,49.239,105.508,47.11,105.508z"/>
			<path fill="#F1F2F2" d="M27.021,9c3.953,0,7.641,2.439,9.08,6.324l1.517,3.852c0.343-0.013,0.683-0.019,1.024-0.019
				c11.464,0,21.814,7.012,26.027,17.748l2.604,6.589c1.632,4.163,4.701,7.602,8.658,9.695l3.673,1.893
				c1.853,0.989,3.3,2.596,4.069,4.548l0.146,0.359c1.781,4.522-0.438,9.629-4.953,11.408L26.149,92.216
				c-1.122,0.468-2.302,0.696-3.474,0.696c-2.22,0-4.41-0.818-6.112-2.369c-2.695-2.551-3.516-6.515-2.044-9.922l0.724-1.68
				c1.971-4.535,2.051-9.668,0.236-14.257l-2.856-7.231c-4.376-11.037-1.316-23.641,7.646-31.431l-1.71-4.335
				c-0.063-0.16-0.124-0.319-0.179-0.479c-1.634-4.887,1.002-10.173,5.89-11.807C25.185,9.13,26.109,9,27.021,9 M58.678,84.008
				c2.51,6.396-0.618,13.613-7.006,16.13c-1.498,0.591-3.043,0.87-4.562,0.87c-4.957,0-9.642-2.979-11.572-7.869L58.678,84.008
				 M27.021,0c-1.795,0-3.581,0.26-5.309,0.772l-0.148,0.044l-0.146,0.049c-4.645,1.552-8.406,4.82-10.591,9.202
				c-2.17,4.35-2.529,9.28-1.015,13.894C1.587,34.195-0.702,48.265,4.256,60.77l2.852,7.22c0.934,2.36,0.89,5.042-0.119,7.363
				l-0.736,1.708C3.299,83.9,4.955,91.948,10.377,97.08l0.061,0.057l0.062,0.057c3.337,3.043,7.661,4.719,12.175,4.719
				c2.305,0,4.555-0.434,6.691-1.289c3.926,5.816,10.488,9.385,17.744,9.385c2.696,0,5.341-0.504,7.862-1.497
				c9.49-3.737,14.827-13.56,13.313-23.259l13.886-5.483c9.119-3.593,13.617-13.947,10.021-23.078l-0.021-0.051l-0.021-0.052
				l-0.13-0.317c-1.554-3.901-4.457-7.141-8.181-9.129l-0.058-0.031l-0.059-0.03l-3.622-1.867c-2.031-1.085-3.611-2.861-4.452-5.005
				l-2.612-6.612c-4.944-12.602-16.101-21.265-29.22-23.084C40.72,4.158,34.182,0,27.021,0L27.021,0z"/>
		</g>
		<g>
			<path fill="#69B800" d="M64.02,60.92c-15.427,0-27.978-12.548-27.978-27.973c0-15.423,12.551-27.97,27.978-27.97
				c15.42,0,27.965,12.547,27.965,27.97C91.985,48.372,79.44,60.92,64.02,60.92z"/>
			<path fill="#F1F2F2" d="M64.02,9.478c12.964,0,23.465,10.507,23.465,23.47c0,12.966-10.501,23.473-23.465,23.473
				c-12.969,0-23.478-10.507-23.478-23.473C40.542,19.985,51.051,9.478,64.02,9.478 M60.218,35.514l-4.839-4.838
				c-0.833-0.832-1.922-1.248-3.011-1.248s-2.178,0.416-3.009,1.248c-1.66,1.663-1.668,4.36-0.002,6.027l7.833,7.832
				c0.628,0.63,1.407,1.02,2.221,1.171c0.271,0.053,0.547,0.08,0.821,0.08c1.091,0,2.18-0.417,3.011-1.25l14.461-14.457
				c1.662-1.666,1.662-4.355,0-6.021c-0.833-0.833-1.926-1.25-3.019-1.25c-1.089,0-2.178,0.415-3.008,1.245L60.218,35.514
				 M64.02,0.478c-17.908,0-32.478,14.566-32.478,32.47c0,17.905,14.57,32.473,32.478,32.473c17.901,0,32.465-14.567,32.465-32.473
				C96.485,15.043,81.921,0.478,64.02,0.478L64.02,0.478z"/>
		</g>
	</g>
</g>
</svg>
