<?xml version="1.0" encoding="utf-8"?>
<!-- Generator: Adobe Illustrator 16.0.0, SVG Export Plug-In . SVG Version: 6.00 Build 0)  -->
<!DOCTYPE svg PUBLIC "-//W3C//DTD SVG 1.1//EN" "http://www.w3.org/Graphics/SVG/1.1/DTD/svg11.dtd">
<svg version="1.1" id="Layer_1" xmlns="http://www.w3.org/2000/svg" xmlns:xlink="http://www.w3.org/1999/xlink" x="0px" y="0px"
	 width="124.028px" height="153.424px" viewBox="0 0 124.028 153.424" enable-background="new 0 0 124.028 153.424"
	 xml:space="preserve">
<g>
	<g>
		<path d="M35.652,131.225v-7.172h-2.684v-0.527h5.94v0.527h-2.684v7.172H35.652z"/>
		<path d="M40.097,131.225v-7.699h5.478v0.527h-4.906v3.025h4.411v0.527h-4.411v3.092h4.961v0.527H40.097z"/>
		<path d="M46.917,131.225v-7.699h3.234c0.938,0,1.661,0.252,2.167,0.758c0.389,0.391,0.583,0.867,0.583,1.432v0.021
			c0,0.623-0.205,1.121-0.616,1.496c-0.411,0.373-0.957,0.609-1.639,0.703l2.541,3.289H52.46l-2.453-3.189h-2.519v3.189H46.917z
			 M47.488,127.518h2.596c0.66,0,1.199-0.156,1.617-0.473c0.418-0.314,0.627-0.744,0.627-1.287v-0.021
			c0-0.521-0.194-0.932-0.583-1.232c-0.389-0.301-0.932-0.451-1.628-0.451h-2.629V127.518z"/>
		<path d="M57.806,131.358c-1.093,0-2.004-0.381-2.733-1.145c-0.73-0.762-1.094-1.701-1.094-2.816v-0.021
			c0-1.1,0.366-2.039,1.1-2.816s1.65-1.166,2.75-1.166c0.638,0,1.186,0.105,1.645,0.314s0.908,0.516,1.348,0.918l-0.407,0.418
			c-0.777-0.756-1.643-1.133-2.596-1.133c-0.924,0-1.696,0.332-2.315,0.996c-0.62,0.664-0.93,1.479-0.93,2.447v0.021
			c0,0.975,0.313,1.797,0.94,2.465c0.627,0.666,1.399,1,2.315,1c0.535,0,1.008-0.1,1.419-0.297s0.821-0.498,1.232-0.902l0.385,0.375
			c-0.447,0.439-0.909,0.773-1.386,1C59.001,131.245,58.444,131.358,57.806,131.358z"/>
		<path d="M61.887,131.225v-7.699h5.478v0.527h-4.906v3.025h4.412v0.527h-4.412v3.092h4.961v0.527H61.887z"/>
		<path d="M68.707,131.225v-7.699h3.234c0.938,0,1.661,0.252,2.167,0.758c0.389,0.391,0.583,0.867,0.583,1.432v0.021
			c0,0.623-0.205,1.121-0.616,1.496c-0.41,0.373-0.957,0.609-1.639,0.703l2.541,3.289h-0.726l-2.453-3.189h-2.52v3.189H68.707z
			 M69.279,127.518h2.596c0.66,0,1.199-0.156,1.617-0.473c0.418-0.314,0.627-0.744,0.627-1.287v-0.021
			c0-0.521-0.194-0.932-0.583-1.232s-0.931-0.451-1.628-0.451h-2.629V127.518z"/>
		<path d="M82.424,130.18c-0.726,0.785-1.657,1.178-2.794,1.178s-2.064-0.389-2.783-1.166s-1.078-1.709-1.078-2.795v-0.021
			c0-1.086,0.363-2.02,1.089-2.805c0.727-0.785,1.657-1.178,2.794-1.178s2.064,0.389,2.783,1.166s1.078,1.709,1.078,2.795v0.021
			C83.513,128.461,83.15,129.395,82.424,130.18z M77.304,129.829c0.627,0.674,1.409,1.012,2.348,1.012c0.939,0,1.718-0.334,2.338-1
			c0.62-0.668,0.93-1.482,0.93-2.443v-0.021c0-0.961-0.313-1.777-0.94-2.453c-0.627-0.674-1.41-1.012-2.349-1.012
			s-1.718,0.334-2.338,1c-0.619,0.668-0.929,1.482-0.929,2.443v0.021C76.364,128.336,76.677,129.155,77.304,129.829z"/>
		<path d="M87.462,131.336c-1.151,0-2.186-0.412-3.102-1.232l0.374-0.43c0.433,0.404,0.861,0.695,1.286,0.875
			c0.426,0.18,0.917,0.27,1.475,0.27c0.572,0,1.039-0.145,1.402-0.436c0.363-0.289,0.545-0.654,0.545-1.094v-0.021
			c0-0.426-0.152-0.764-0.457-1.012c-0.305-0.25-0.878-0.459-1.722-0.627c-0.924-0.184-1.588-0.445-1.991-0.781
			c-0.403-0.338-0.604-0.799-0.604-1.387v-0.021c0-0.572,0.234-1.053,0.704-1.441c0.469-0.389,1.06-0.582,1.771-0.582
			c0.543,0,1.018,0.074,1.425,0.225s0.813,0.387,1.216,0.709l-0.363,0.451c-0.667-0.578-1.434-0.869-2.299-0.869
			c-0.558,0-1.011,0.141-1.358,0.418c-0.349,0.279-0.522,0.623-0.522,1.035v0.021c0,0.434,0.155,0.777,0.467,1.033
			c0.313,0.258,0.904,0.475,1.777,0.65c0.887,0.184,1.53,0.441,1.93,0.775c0.4,0.334,0.6,0.783,0.6,1.348v0.021
			c0,0.615-0.238,1.119-0.715,1.512S88.21,131.336,87.462,131.336z"/>
		<path fill="#BE1E2D" d="M0,153.424v-16.592h3.656v16.592H0z"/>
		<path fill="#BE1E2D" d="M6.614,153.424v-16.592H9.98l7.775,10.217v-10.217h3.598v16.592h-3.101l-8.041-10.539v10.539H6.614z"/>
		<path fill="#BE1E2D" d="M24.138,153.424v-16.592h12.507v3.252h-8.886v3.367h7.821v3.24h-7.821v3.482h9.013v3.25H24.138z"/>
		<path fill="#BE1E2D" d="M44.727,153.657c-1.28,0-2.53-0.225-3.749-0.672s-2.314-1.107-3.286-1.979l2.152-2.58
			c1.635,1.342,3.286,2.014,4.952,2.014c0.748,0,1.334-0.139,1.759-0.416c0.424-0.279,0.636-0.66,0.636-1.146v-0.047
			c0-0.322-0.085-0.594-0.254-0.809c-0.17-0.217-0.496-0.43-0.978-0.643c-0.482-0.213-1.186-0.434-2.112-0.666
			c-0.524-0.131-0.978-0.256-1.359-0.375s-0.777-0.262-1.186-0.428s-0.752-0.338-1.03-0.516c-0.277-0.178-0.545-0.389-0.804-0.637
			c-0.259-0.246-0.465-0.518-0.619-0.814s-0.276-0.639-0.364-1.025c-0.089-0.385-0.133-0.809-0.133-1.271V141.6
			c0-1.496,0.542-2.703,1.625-3.621s2.478-1.377,4.183-1.377c2.36,0,4.412,0.701,6.155,2.105l-1.897,2.754
			c-1.582-1.096-3.016-1.643-4.304-1.643c-0.679,0-1.205,0.135-1.579,0.404s-0.561,0.617-0.561,1.041v0.047
			c0,0.533,0.231,0.938,0.694,1.215c0.463,0.277,1.427,0.602,2.893,0.973c0.887,0.23,1.637,0.479,2.25,0.746
			c0.613,0.266,1.155,0.592,1.625,0.977c0.471,0.387,0.817,0.848,1.042,1.383c0.224,0.537,0.335,1.16,0.335,1.869v0.047
			c0,1.611-0.558,2.871-1.672,3.777C48.026,153.204,46.555,153.657,44.727,153.657z"/>
		<path fill="#BE1E2D" d="M56.304,153.424V140.2H51.26v-3.367h13.733v3.367h-5.044v13.225H56.304z"/>
		<path fill="#BE1E2D" d="M63.057,153.424l7.115-16.707h3.355l7.115,16.707h-3.818l-1.516-3.725h-7.011l-1.517,3.725H63.057z
			 M69.593,146.483h4.408l-2.198-5.381L69.593,146.483z"/>
		<path fill="#BE1E2D" d="M82.003,153.424v-16.592h7.705c1.905,0,3.348,0.49,4.327,1.471c0.764,0.764,1.146,1.705,1.146,2.822v0.047
			c0,1.566-0.729,2.758-2.187,3.574c1.025,0.387,1.801,0.896,2.325,1.533s0.787,1.488,0.787,2.551v0.047
			c0,1.48-0.556,2.609-1.666,3.385s-2.626,1.162-4.547,1.162H82.003z M85.555,143.543h3.367c1.751,0,2.626-0.586,2.626-1.758v-0.047
			c0-0.547-0.204-0.967-0.613-1.262c-0.409-0.293-0.999-0.439-1.771-0.439h-3.609V143.543z M85.555,150.231h4.339
			c0.825,0,1.462-0.15,1.909-0.451s0.671-0.752,0.671-1.354v-0.047c0-0.57-0.222-1.014-0.665-1.33
			c-0.444-0.316-1.121-0.475-2.031-0.475h-4.223V150.231z"/>
		<path fill="#BE1E2D" d="M97.919,153.424v-16.592h3.645v13.271h8.272v3.32H97.919z"/>
		<path fill="#BE1E2D" d="M111.394,153.424v-16.592h12.507v3.252h-8.886v3.367h7.821v3.24h-7.821v3.482h9.013v3.25H111.394z"/>
	</g>
	<g>
		<g>
			<path fill="#A7A9AC" d="M59.099,105.508c-6.938,0-13.074-4.13-15.686-10.537l-3.623,1.43c-1.579,0.66-3.331,1.011-5.127,1.011
				c-3.39,0-6.637-1.259-9.144-3.544c-4.116-3.895-5.354-9.912-3.144-15.031l0.722-1.676c1.488-3.423,1.553-7.362,0.184-10.821
				l-2.857-7.234c-4.67-11.778-2.015-25.143,6.542-34.233l-0.605-1.536c-0.083-0.208-0.166-0.428-0.242-0.648
				c-1.19-3.558-0.927-7.308,0.722-10.613c1.649-3.306,4.487-5.772,7.991-6.943l0.147-0.046c1.313-0.389,2.668-0.586,4.03-0.586
				c5.904,0,11.249,3.722,13.3,9.262l0.378,0.959c12.586,0.778,23.5,8.667,28.16,20.541l2.6,6.579
				c1.242,3.17,3.576,5.784,6.577,7.372l3.63,1.87c2.858,1.525,5.038,3.964,6.194,6.898l0.126,0.308
				c2.708,6.874-0.652,14.609-7.47,17.295l-17.584,6.944c3.293,8.652-0.989,18.401-9.609,21.797
				C63.318,105.11,61.228,105.508,59.099,105.508z"/>
			<path fill="#F1F2F2" d="M39.009,9c3.953,0,7.641,2.439,9.08,6.324l1.517,3.852c0.343-0.013,0.683-0.019,1.024-0.019
				c11.464,0,21.814,7.012,26.027,17.748l2.604,6.589c1.632,4.163,4.701,7.602,8.658,9.695l3.673,1.893
				c1.853,0.989,3.3,2.596,4.069,4.548l0.146,0.359c1.781,4.522-0.438,9.629-4.953,11.408L38.137,92.215
				c-1.122,0.469-2.302,0.696-3.474,0.696c-2.22,0-4.41-0.817-6.112-2.369c-2.695-2.55-3.516-6.515-2.044-9.921l0.724-1.68
				c1.971-4.535,2.051-9.668,0.236-14.257l-2.856-7.231c-4.376-11.037-1.316-23.641,7.646-31.431l-1.71-4.335
				c-0.063-0.16-0.124-0.319-0.179-0.479c-1.634-4.887,1.002-10.173,5.89-11.807C37.173,9.13,38.098,9,39.009,9 M70.667,84.008
				c2.51,6.396-0.618,13.613-7.006,16.129c-1.498,0.591-3.043,0.871-4.562,0.871c-4.957,0-9.642-2.98-11.572-7.869L70.667,84.008
				 M39.009,0c-1.795,0-3.581,0.26-5.309,0.772l-0.148,0.044l-0.146,0.049C28.761,2.417,25,5.685,22.814,10.067
				c-2.17,4.35-2.529,9.28-1.015,13.894c-8.224,10.234-10.513,24.304-5.555,36.809l2.852,7.22c0.934,2.36,0.89,5.042-0.119,7.363
				l-0.736,1.708c-2.954,6.839-1.298,14.887,4.124,20.019l0.061,0.058l0.062,0.057c3.337,3.042,7.661,4.718,12.175,4.718
				c2.305,0,4.555-0.434,6.691-1.288c3.926,5.815,10.488,9.385,17.744,9.385c2.696,0,5.341-0.504,7.862-1.498
				c9.49-3.737,14.827-13.56,13.313-23.258l13.886-5.484c9.119-3.593,13.617-13.947,10.021-23.078l-0.021-0.051l-0.021-0.052
				l-0.13-0.317c-1.554-3.901-4.457-7.141-8.181-9.129l-0.058-0.031l-0.059-0.03l-3.622-1.867c-2.031-1.085-3.611-2.861-4.452-5.005
				l-2.612-6.612c-4.944-12.602-16.101-21.265-29.22-23.084C52.708,4.158,46.17,0,39.009,0L39.009,0z"/>
		</g>
		<g>
			<path fill="#F1F2F2" d="M76.007,12.59c11.245,0,20.354,9.114,20.354,20.358c0,11.247-9.108,20.36-20.354,20.36
				c-11.249,0-20.365-9.114-20.365-20.36C55.643,21.704,64.758,12.59,76.007,12.59"/>
			<path fill="#BE1E2D" d="M76.008,4.977C60.553,4.981,48.032,17.503,48.03,32.952c0,15.446,12.527,27.966,27.978,27.966
				c15.454,0.007,27.971-12.513,27.973-27.969C103.981,17.497,91.457,4.977,76.008,4.977z M87.001,29.15l-3.801,3.802l4.042,4.042
				c1.977,1.979,1.991,5.217,0.005,7.203c-1.989,1.987-5.205,1.975-7.199-0.006l-4.05-4.055l-4.037,4.062
				c-1.989,1.987-5.213,1.981-7.2-0.006c-1.989-1.992-1.989-5.199,0-7.19l4.051-4.055l-3.811-3.802
				c-1.982-1.993-1.989-5.207-0.002-7.192c1.985-1.987,5.207-1.987,7.196,0l3.808,3.801l3.806-3.801
				c1.986-1.987,5.203-1.987,7.192,0C88.985,23.937,88.996,27.163,87.001,29.15z"/>
			<path fill="#F1F2F2" d="M76.008,9.478c12.964,0,23.465,10.507,23.465,23.47c0,12.966-10.501,23.473-23.465,23.473
				c-12.969,0-23.478-10.507-23.478-23.473C52.53,19.985,63.04,9.478,76.008,9.478 M76.008,0.478
				c-17.908,0-32.478,14.566-32.478,32.47c0,17.905,14.57,32.473,32.478,32.473c17.901,0,32.465-14.567,32.465-32.473
				C108.473,15.043,93.91,0.478,76.008,0.478L76.008,0.478z"/>
		</g>
	</g>
</g>
</svg>
